<?xml version="1.0" encoding="utf-8"?>
<!-- Generator: Adobe Illustrator 18.1.1, SVG Export Plug-In . SVG Version: 6.00 Build 0)  -->
<svg version="1.1" id="Layer_1" xmlns="http://www.w3.org/2000/svg" xmlns:xlink="http://www.w3.org/1999/xlink" x="0px" y="0px"
	 viewBox="0 0 445.9 76.1" enable-background="new 0 0 445.9 76.1" xml:space="preserve">
<g>
	<g>
		<g>
			<path fill="#2E85BE" d="M106.7,6.2h-8.4V0.6h22.9v5.6h-8.4v22.1h-6.1V6.2z"/>
			<path fill="#2E85BE" d="M125.1,0.6H146V6h-14.8v5.6h13.1V17h-13.1v5.8h15v5.4h-21.1V0.6z"/>
			<path fill="#2E85BE" d="M148.8,14.4c0-7.9,5.9-14.3,14.4-14.3c5.2,0,8.2,2,10.7,4.5l-3.6,4.2c-2.1-1.9-4-3.1-7.1-3.1
				c-4.7,0-8,3.9-8,8.7c0,4.7,3.3,8.7,8,8.7c3.2,0,5.1-1.3,7.3-3.2l3.9,4.2c-2.8,3-6,4.7-11.4,4.7C154.9,28.8,148.8,22.5,148.8,14.4
				z"/>
			<path fill="#2E85BE" d="M184.9,6.2h-8.4V0.6h22.9v5.6H191v22.1h-6.1V6.2z"/>
			<path fill="#2E85BE" d="M214.4,0.6h23.1v27.7h-6.1V6.1h-10.9v22.2h-6.1V0.6z"/>
			<path fill="#2E85BE" d="M243.3,0.6h20.9V6h-14.8v5.6h13.1V17h-13.1v5.8h15v5.4h-21.1V0.6z"/>
			<path fill="#2E85BE" d="M275.5,6.2h-8.4V0.6H290v5.6h-8.4v22.1h-6.1V6.2z"/>
			<path fill="#2E85BE" d="M293.9,0.6h20.9V6h-14.8v5.6H313V17h-13.1v5.8h15v5.4h-21.1V0.6z"/>
			<path fill="#2E85BE" d="M319.6,0.6h11.3c6.6,0,10.6,3.9,10.6,9.7c0,6.4-5,9.7-11.2,9.7h-4.6v8.3h-6.1V0.6z M330.5,14.6
				c3,0,4.8-1.8,4.8-4.3c0-2.7-1.9-4.2-4.9-4.2h-4.7v8.5H330.5z"/>
			<path fill="#2E85BE" d="M351.3,10.9h7.3c6.3,0,9.7,3.4,9.7,8.6c0,5.7-3.9,8.8-10.3,8.8h-12.8V0.6h21.2v5.5h-15.2V10.9z M351.3,16
				v6.8h6.7c2.8,0,4.2-1.1,4.2-3.5c0-2.1-1.4-3.3-4.3-3.3H351.3z"/>
			<path fill="#2E85BE" d="M391,0.6h6.6L387,22c-2.4,4.8-5.2,6.7-9.1,6.7c-2.4,0-4.2-0.6-6-1.6l2.4-4.5c1.1,0.7,2.2,0.9,3.3,0.9
				c1.1,0,2.4-0.5,3.5-2.2L370,0.6h6.8l7.5,14.6L391,0.6z"/>
			<path fill="#2E85BE" d="M400.9,0.6h11.3c6.6,0,10.6,3.9,10.6,9.7c0,6.4-5,9.7-11.2,9.7H407v8.3h-6.1V0.6z M411.8,14.6
				c3,0,4.8-1.8,4.8-4.3c0-2.7-1.9-4.2-4.9-4.2H407v8.5H411.8z"/>
			<path fill="#2E85BE" d="M432.6,28.3h-6.1V0.6h19.3v5.5h-13.3V28.3z"/>
		</g>
	</g>
	<g>
		<g>
			<path fill="#F6872A" d="M99.1,56.4c0-7.9,5.9-14.3,14.4-14.3c5.2,0,8.2,2,10.7,4.5l-3.6,4.2c-2.1-1.9-4-3.1-7.1-3.1
				c-4.7,0-8,3.9-8,8.7c0,4.7,3.3,8.7,8,8.7c3.2,0,5.1-1.3,7.3-3.2l3.9,4.2c-2.8,3-6,4.7-11.4,4.7C105.1,70.8,99.1,64.5,99.1,56.4z"
				/>
			<path fill="#F6872A" d="M128.7,42.6h20.9V48h-14.8v5.6h13.1V59h-13.1v5.8h15v5.4h-21.1V42.6z"/>
			<path fill="#F6872A" d="M154.4,42.6h11.3c6.6,0,10.6,3.9,10.6,9.7c0,6.4-5,9.7-11.2,9.7h-4.6v8.3h-6.1V42.6z M165.3,56.6
				c3,0,4.8-1.8,4.8-4.3c0-2.7-1.9-4.2-4.9-4.2h-4.7v8.5H165.3z"/>
			<path fill="#F6872A" d="M186.5,48.2h-8.4v-5.6H201v5.6h-8.4v22.1h-6.1V48.2z"/>
			<path fill="#F6872A" d="M228.7,70.3h-6V52.1l-12.1,18.2h-5.7V42.6h6v18.2l12.2-18.2h5.7V70.3z"/>
			<path fill="#F6872A" d="M246.7,71.4v-3c-8.5,0-13.7-5.3-13.7-12.3c0-6.9,5.2-12,13.7-12v-2.5h6.1V44c8.5,0,13.7,5.1,13.7,12.1
				c0,7-5.2,12.3-13.7,12.3v3H246.7z M246.7,49.5c-4.5,0-7.5,2.7-7.5,6.7c0,4.2,3,6.8,7.5,6.8V49.5z M252.8,63
				c4.5,0,7.4-2.6,7.4-6.8c0-4.1-3-6.7-7.4-6.7V63z"/>
			<path fill="#F6872A" d="M294.5,70.3h-6V52.1l-12.1,18.2h-5.7V42.6h6v18.2l12.2-18.2h5.7V70.3z"/>
			<path fill="#F6872A" d="M300.4,42.6h6.1v12.1l11.2-12.1h7.4l-11.3,11.8l11.8,15.9h-7.3l-8.6-11.8l-3.2,3.3v8.5h-6.1V42.6z"/>
			<path fill="#F6872A" d="M338,42.4h5.6l11.9,27.9h-6.4l-2.5-6.2h-11.7l-2.5,6.2h-6.2L338,42.4z M344.4,58.7l-3.7-9l-3.7,9H344.4z"
				/>
			<path fill="#F6872A" d="M379.5,70.3h-20.5V42.6h6.1v22.2h10.9V42.6h6.1v22.2h3.3l-0.8,11.3h-5.1V70.3z"/>
			<path fill="#F6872A" d="M412.7,70.3h-6V52.1l-12.1,18.2h-5.7V42.6h6v18.2L407,42.6h5.7V70.3z"/>
			<path fill="#F6872A" d="M440.4,70.3h-6.1v-8.9h-4.8l-5.9,8.9h-7.1l6.8-9.9c-3.5-1.3-5.9-4.1-5.9-8.7c0-5.7,4-9.1,10.4-9.1h12.7
				V70.3z M434.3,56v-8h-6.1c-3,0-4.8,1.3-4.8,4c0,2.3,1.7,3.9,4.7,3.9H434.3z"/>
		</g>
	</g>
	<path fill-rule="evenodd" clip-rule="evenodd" fill="#F6872A" d="M60.1,23.2c7.5,0,14.9,0,22.4,0v7.1h-5.7v9.5H65.8v-9.5h-5.7V23.2
		L60.1,23.2z M16.1,49.8L16.1,49.8c-3.4,0-6.2-2.8-6.2-6.2V25.4c0-6.3,5.1-11.3,11.3-11.3c6.3,0,11.3,5.1,11.3,11.3
		s-5.1,11.3-11.3,11.3c-1,0-2-0.1-2.9-0.4v-6.7c0.8,0.5,1.8,0.9,2.8,0.9c2.8,0,5.1-2.3,5.1-5.1c0-2.8-2.3-5.1-5.1-5.1
		s-5.1,2.3-5.1,5.1V49.8L16.1,49.8z M70.9,8.5C64.4,4.9,53.1,0,40.5,0C20.6,0,2.3,9.7,2.3,31.7c0,22,17.2,31.4,37.2,31.4
		c14.2,0,25.8-5.5,31.4-8.8V41.8c-4.1,2.4-11.6,6.1-19.4,6.1c-22.2,0-21.4-32.2-0.7-32.3c7.8,0,15.4,3.1,20.1,5.5V8.5z"/>
	<path fill-rule="evenodd" clip-rule="evenodd" fill="#2E85BE" d="M74.3,56.6l0-0.3h-0.6l-3.7,0.5l-1.6-1.5l-0.2,0.1v0.6l-0.1,0.3
		l-1.5-0.2l0-1.2l-1.8-2.1l-0.4,0.2c0-4.4-0.2-3.8-1.5-4.9c-0.1-0.3-0.1-0.5-0.2-0.8c0.3-0.4,0.1-0.7-0.3-0.9l0-0.7l0.3,0l0-0.2
		l-0.2,0l0-0.2l-0.2,0l-0.1,0.2l-0.2,0l0,0.2l0.2,0c0.2,0,0,0.4,0,0.6c0,0.2-0.3,0.4-0.4,0.5c-0.3,0.2-0.3,0.2-0.3,0.5
		c0.2,0.6,0.1,1.1,0,1.1C61,48.7,60.3,50,60.4,51c0,1.2,0.2,2-0.1,2.3c-0.5,0.5-1.3,0.5-1.9,2.6l-1,0l-3-0.9l0.1-0.3h-2.4l0-6.6
		L50,46.7c0.2-0.7-0.2-1.8-0.1-2.7c0.3-0.4,0.3-0.9-0.2-1.4l-0.7-0.1l0-0.2l0.2,0l0-0.2l-0.2,0l0-0.2l-0.2,0l0,0.2l-0.2,0
		c-0.1,0,0,0.3-0.1,0.4c-0.3,0-0.8,0.7-0.8,1.1c0.2,0.3,0.3,0.3,0.4,0.6c0.3,0.6,0.2,2-0.5,2.8c-0.5,0.5-1.7,0.5-1.8,0.7l-0.3,0.2
		l0.4,0l0.1,1.9l0.2,4.8l-6.4,0.1c-0.1-0.3-1.4-7,0.1-7.6l-0.7-0.4L39,41.5l0.2,0.1l0.8-0.9c-1.5-0.6-0.8,0.9-1.4-1.2
		c-0.3-1-0.7-1.5-1.2-2.1c-0.9-1.1-0.4-2.5,0-3.8c0-0.1-0.4-0.1-0.4-0.3c0-0.6-0.3-1.7-0.8-1.7c-0.2,0-0.1-9.7-0.1-10.9v-0.6
		L35.7,7.3c0-0.1,0.3,0,0.2-0.1c-0.5-1.3,0.6-2.7,1.7-3.1c0.5-0.2,0-0.9,0-1.4c0-0.3-1.4,1.2-1.7,1c-0.3-0.2,0.4-0.9,0.3-0.9
		C36,2.7,35.8,2,35.5,2c0,0.1-0.1,0.2-0.1,0.4c0,0.1-0.3,0.6-0.4,1c0,0.2-0.4-0.2-0.5-0.1c-0.1,0.2-0.1,0.2-0.1,0.4
		c0,0.3,0.7,0.6,0.7,0.9c0,0.4-0.1,0.7,0,1.2c0.1,0.5-0.1,0.9-0.2,1.3l0.2,0.5c-0.4,3.8,0,23.6-0.9,24c-0.4,0.2-0.3,0.7-0.5,1.6
		c-0.1,0.2-0.4,0.3-0.5,0.5c0.3,0.2,0.5,0.2,0.6,0.4c0.3,0.7,0.2,1.8-0.4,2.8c-1.5,1.7-1.1,1.3-1.4,3.5h-1.1c0.7,1.3,1,1.1,1.1,1.4
		c0.1,0.3-0.1,1.1-0.1,2.4c0,0.7,0,1.2,0,1.8c0,1.5-0.2,0.5-1,0.9c0.2,0.6,0.5,0.6,0.6,0.9c0.2,1-0.2,1.2-0.2,3
		c0.1,0.1-0.3,2-0.9,2.9c-0.2,0.3-0.5,0.5-0.6,0.6c0.4,0.2,0.6,0,0.8,0.3c0.2,0.3,0.2,1.3,0.1,2.4c-0.1,0.5-1.5,2.1-2.4,2.1h-1.1
		c-0.7,0-0.7-0.4-0.9-0.9c-1.2,0-3.3,0.2-4.3-0.1c-1-0.2-1.1-1.4-2.6-0.8c-1.4,0.6-0.8,1.4-2.7,1.3c-1.4-0.1-2-0.3-2.8-0.8
		c-2.7-1.6-3.4,0.4-6,0.5C-37.2,74.5,132,71.3,74.3,56.6z"/>
</g>
</svg>
